# xmcd
#
# Track frame offsets:
#	183
#	22103
#	40710
#	56505
#	73570
#	93455
#	112518
#	127985
#	150480
#	165048
#	183615
#
# Disc length: 2620 seconds
#
# Revision: 0
# Processed by: cddbd v1.5.2PL0 Copyright (c) Steve Scherf et al.
# Submitted via: EZCDAudioConverter 1.3.1.1
#
DISCID=7b0a3a0b
DTITLE=Eric Clapton - 461 Ocean Boulevard
DYEAR=1974
DGENRE=Blues Rock
TTITLE0=Motherless Children
TTITLE1=Better Make It Through Today
TTITLE2=Willie And The Hand Jive
TTITLE3=Get Ready
TTITLE4=I Shot The Sheriff
TTITLE5=I Can’t Hold Out
TTITLE6=Please Be With Me
TTITLE7=Let It Grow
TTITLE8=Steady Rollin' Man
TTITLE9=Mainline Florida
TTITLE10=Give Me Strength
EXTD=
EXTT0=
EXTT1=
EXTT2=
EXTT3=
EXTT4=
EXTT5=
EXTT6=
EXTT7=
EXTT8=
EXTT9=
EXTT10=
PLAYORDER=
